# xmcd
#
# Track frame offsets: 
#        150
#        10096
#        18870
#        31020
#        40085
#        51176
#        62265
#        73777
#        85629
#        98725
#        108624
#        120572
#        129513
#        143166
#        153499
#        164623
#        175867
#        186348
#        197904
#        208162
#
# Disc length: 2922 seconds
#
# Revision: 2
# Processed by: cddbd v1.5.2PL0 Copyright (c) Steve Scherf et al.
# Submitted via: ExactAudioCopy v0.99pb5
#
DISCID=0c0b6814
DTITLE=Various Artist - Rojo and Roll - 20 Exitos De Los Anos Felices
DYEAR=2003
DGENRE=Rock and Roll
TTITLE0=Clan Rojo - ''Rock Around The Clock''
TTITLE1=Daniel Donoso - ''Oh Carol''
TTITLE2=Nicolas Alamos - ''Diana''
TTITLE3=Roberto Olea, Monserrat Bustamente, Clan Rojo - ''Hit The Road
TTITLE3=Jack''
TTITLE4=María José Quintanilla, Clan Rojo, María Jimena Pereyra - ''La
TTITLE4=Bamba''
TTITLE5=Catalina Barrios, Mario Guerrero - ''Runaway''
TTITLE6=Roberto Olea, Clan Rojo, Daniel Donoso - ''The Twist''
TTITLE7=Clan Rojo, Daniel Donoso - ''At The Hop''
TTITLE8=Daniel Donoso - ''Pretty Woman''
TTITLE9=Daniel Donoso - ''Return To Sender''
TTITLE10=Daniel Donoso - ''Be Bop A Lula''
TTITLE11=Nicolas Alamos, Clan Rojo - ''You're Sixteen''
TTITLE12=Daniela Castillo - ''I'm Sorry''
TTITLE13=Daniel Donoso - ''Jailhouse Rock''
TTITLE14=Catalina Barrios - ''Bye Bye Love''
TTITLE15=Daniel Donoso, Mario Guerrero - ''All I Have To Do Is Dream''
TTITLE16=Roberto Olea, Clan Rojo - ''Speedy Gonzalez''
TTITLE17=Carolina Soto - ''Put Your Head On My Shoulder''
TTITLE18=Roberto Olea - ''Stand By Me''
TTITLE19=Clan Rojo, Daniel Donoso - ''Runaround Sue''
EXTD=
EXTT0=
EXTT1=
EXTT2=
EXTT3=
EXTT4=
EXTT5=
EXTT6=
EXTT7=
EXTT8=
EXTT9=
EXTT10=
EXTT11=
EXTT12=
EXTT13=
EXTT14=
EXTT15=
EXTT16=
EXTT17=
EXTT18=
EXTT19=
PLAYORDER=
